<?xml version="1.0" encoding="utf-8"?>
<!-- Generator: Adobe Illustrator 23.0.1, SVG Export Plug-In . SVG Version: 6.00 Build 0)  -->
<svg version="1.1" id="Layer_1" xmlns="http://www.w3.org/2000/svg" xmlns:xlink="http://www.w3.org/1999/xlink" x="0px" y="0px"
	 viewBox="0 0 1000 1000" style="enable-background:new 0 0 1000 1000;" xml:space="preserve">
<style type="text/css">
	.st0{display:none;}
	.st1{display:inline;}
	.st2{clip-path:url(#SVGID_2_);fill:#DEB887;}
	.st3{clip-path:url(#SVGID_2_);}
	.st4{clip-path:url(#SVGID_4_);fill:#DEB887;}
	.st5{clip-path:url(#SVGID_4_);fill:#F15A96;}
	.st6{clip-path:url(#SVGID_4_);fill:#5A96F1;}
	.st7{clip-path:url(#SVGID_4_);fill:#FF7F50;}
	.st8{clip-path:url(#SVGID_4_);fill:#5B270B;}
	.st9{clip-path:url(#SVGID_4_);fill:#A55B53;}
	.st10{clip-path:url(#SVGID_6_);}
	.st11{clip-path:url(#SVGID_8_);fill:#5A96F1;}
	.st12{fill:#5A96F1;}
	.st13{fill:#DEB887;}
	.st14{fill:#FF7F50;}
	.st15{fill:#5B270B;}
	.st16{fill:url(#SVGID_9_);}
	.st17{fill:#5B270B;stroke:url(#SVGID_10_);stroke-width:1.0245;stroke-miterlimit:10;}
	.st18{fill:#5B270B;stroke:url(#SVGID_11_);stroke-width:1.0245;stroke-miterlimit:10;}
	.st19{fill:#5B270B;stroke:url(#SVGID_12_);stroke-width:1.0245;stroke-miterlimit:10;}
	.st20{fill:#5B270B;stroke:url(#SVGID_13_);stroke-width:1.0245;stroke-miterlimit:10;}
	.st21{fill:#5B270B;stroke:url(#SVGID_14_);stroke-width:1.0245;stroke-miterlimit:10;}
	.st22{fill:#5B270B;stroke:url(#SVGID_15_);stroke-width:1.0245;stroke-miterlimit:10;}
	.st23{fill:#5B270B;stroke:url(#SVGID_16_);stroke-width:1.0245;stroke-miterlimit:10;}
	.st24{fill:#5B270B;stroke:url(#SVGID_17_);stroke-width:1.0245;stroke-miterlimit:10;}
	.st25{fill:#5B270B;stroke:url(#SVGID_18_);stroke-width:1.0245;stroke-miterlimit:10;}
	.st26{fill:#5B270B;stroke:url(#SVGID_19_);stroke-width:1.0245;stroke-miterlimit:10;}
	.st27{fill:#5B270B;stroke:url(#SVGID_20_);stroke-width:1.0245;stroke-miterlimit:10;}
	.st28{fill:#5B270B;stroke:url(#SVGID_21_);stroke-width:1.0245;stroke-miterlimit:10;}
	.st29{fill:#5B270B;stroke:url(#SVGID_22_);stroke-width:1.0245;stroke-miterlimit:10;}
	.st30{fill:#5B270B;stroke:url(#SVGID_23_);stroke-width:1.0245;stroke-miterlimit:10;}
	.st31{fill:#5B270B;stroke:url(#SVGID_24_);stroke-width:1.0245;stroke-miterlimit:10;}
	.st32{fill:#5B270B;stroke:url(#SVGID_25_);stroke-width:1.0245;stroke-miterlimit:10;}
	.st33{fill:#5B270B;stroke:url(#SVGID_26_);stroke-width:1.0245;stroke-miterlimit:10;}
	.st34{fill:#5B270B;stroke:url(#SVGID_27_);stroke-width:1.0245;stroke-miterlimit:10;}
	.st35{fill:#5B270B;stroke:url(#SVGID_28_);stroke-width:1.0245;stroke-miterlimit:10;}
	.st36{fill:#5B270B;stroke:url(#SVGID_29_);stroke-width:1.0245;stroke-miterlimit:10;}
	.st37{fill:#5B270B;stroke:url(#SVGID_30_);stroke-width:1.0245;stroke-miterlimit:10;}
	.st38{opacity:0.5;fill:#83A1CC;}
	.st39{fill:url(#SVGID_31_);}
</style>
<g class="st0">
	<g class="st1">
		<defs>
			<rect id="SVGID_1_" width="1000" height="1000"/>
		</defs>
		<clipPath id="SVGID_2_">
			<use xlink:href="#SVGID_1_"  style="overflow:visible;"/>
		</clipPath>
		<rect x="295" y="444.44" class="st2" width="60" height="30"/>
		<rect x="295" y="474.44" class="st2" width="60" height="30"/>
		<rect x="295" y="504.44" class="st2" width="60" height="30"/>
		<g class="st3">
			<defs>
				<rect id="SVGID_3_" width="1000" height="1000"/>
			</defs>
			<clipPath id="SVGID_4_">
				<use xlink:href="#SVGID_3_"  style="overflow:visible;"/>
			</clipPath>
			<path class="st4" d="M310,459.44c0,8.28-6.72,15-15,15c-8.28,0-15-6.72-15-15c0-8.28,6.72-15,15-15
				C303.28,444.44,310,451.16,310,459.44"/>
			<path class="st4" d="M310,489.44c0,8.28-6.72,15-15,15c-8.28,0-15-6.72-15-15c0-8.28,6.72-15,15-15
				C303.28,474.44,310,481.16,310,489.44"/>
			<path class="st4" d="M310,519.44c0,8.28-6.72,15-15,15c-8.28,0-15-6.72-15-15c0-8.28,6.72-15,15-15
				C303.28,504.44,310,511.16,310,519.44"/>
			<rect x="645" y="444.44" class="st4" width="60" height="30"/>
			<rect x="645" y="474.44" class="st4" width="60" height="30"/>
			<rect x="645" y="504.44" class="st4" width="60" height="30"/>
			<path class="st4" d="M720,459.44c0,8.28-6.72,15-15,15c-8.28,0-15-6.72-15-15c0-8.28,6.72-15,15-15
				C713.28,444.44,720,451.16,720,459.44"/>
			<path class="st4" d="M720,489.44c0,8.28-6.72,15-15,15c-8.28,0-15-6.72-15-15c0-8.28,6.72-15,15-15
				C713.28,474.44,720,481.16,720,489.44"/>
			<path class="st4" d="M720,519.44c0,8.28-6.72,15-15,15c-8.28,0-15-6.72-15-15c0-8.28,6.72-15,15-15
				C713.28,504.44,720,511.16,720,519.44"/>
			<path class="st5" d="M330.47,370.28c4.12-9.4,9-18.39,14.56-26.9l-16.76-10.93c-6.16,9.43-11.57,19.39-16.13,29.81L330.47,370.28
				z"/>
			<path class="st5" d="M346.64,337.92c0,5.52-4.48,10-10,10c-5.52,0-10-4.48-10-10c0-5.52,4.48-10,10-10
				C342.17,327.92,346.64,332.39,346.64,337.92"/>
			<path class="st5" d="M331.3,366.27c0,5.52-4.48,10-10,10c-5.52,0-10-4.48-10-10c0-5.52,4.48-10,10-10
				C326.83,356.27,331.3,360.75,331.3,366.27"/>
			<path class="st5" d="M359.54,309.16l-7.06-7.06c18.64-19.32,41.04-34.98,66.02-45.81c24.98-10.84,52.54-16.84,81.5-16.84
				c56.61,0,107.86,22.95,144.96,60.04c37.1,37.1,60.04,88.35,60.04,144.96h-10h-10c0-51.09-20.71-97.34-54.18-130.82
				c-33.48-33.48-79.73-54.18-130.81-54.18s-97.34,20.71-130.81,54.18l-3.02,3.01"/>
			<path class="st5" d="M369.53,309.16c0,5.52-4.48,10-10,10c-5.52,0-10-4.48-10-10c0-5.52,4.48-10,10-10
				C365.06,299.16,369.53,303.64,369.53,309.16"/>
			<path class="st5" d="M295,444.44c0-5.52,4.48-10,10-10c5.52,0,10,4.48,10,10H295z"/>
			<path class="st5" d="M319.65,403.03c-1.34,5.86-2.4,11.82-3.17,17.87l-19.84-2.54c0.85-6.71,2.03-13.31,3.51-19.8L319.65,403.03z
				"/>
			<line class="st5" x1="300.16" y1="398.55" x2="309.9" y2="400.79"/>
			<path class="st5" d="M319.9,400.79c0,5.52-4.48,10-10,10c-5.52,0-10-4.48-10-10c0-5.52,4.48-10,10-10
				C315.42,390.79,319.9,395.27,319.9,400.79"/>
			<path class="st5" d="M316.56,419.63c0,5.52-4.48,10-10,10c-5.52,0-10-4.48-10-10c0-5.52,4.48-10,10-10
				C312.09,409.63,316.56,414.1,316.56,419.63"/>
			<path class="st6" d="M335.3,434.47c-0.2,3.3-0.3,6.63-0.3,9.97h-20c0-3.76,0.11-7.48,0.33-11.18L335.3,434.47z"/>
			<path class="st6" d="M335.31,433.87c0,5.52-4.48,10-10,10c-5.52,0-10-4.48-10-10c0-5.52,4.48-10,10-10
				C330.83,423.87,335.31,428.34,335.31,433.87"/>
			<path class="st6" d="M339.08,406.68c0,5.52-4.48,10-10,10c-5.52,0-10-4.48-10-10c0-5.52,4.48-10,10-10
				C334.6,396.68,339.08,401.16,339.08,406.68"/>
			<path class="st6" d="M338.85,408.84c2.02-9.17,4.79-18.05,8.26-26.57l-18.53-7.54c-3.89,9.56-7.01,19.52-9.27,29.79
				L338.85,408.84z"/>
			<path class="st6" d="M347.85,378.5c0,5.52-4.48,10-10,10c-5.52,0-10-4.48-10-10c0-5.52,4.48-10,10-10
				C343.37,368.5,347.85,372.97,347.85,378.5"/>
			<path class="st6" d="M361.26,355.09c29.38-45.52,80.54-75.65,138.74-75.65c91.13,0,165,73.87,165,165h20
				c0-102.17-82.83-185-185-185c-65.26,0-122.62,33.79-155.55,84.82L361.26,355.09z"/>
			<path class="st6" d="M362.86,349.68c0,5.52-4.48,10-10,10c-5.52,0-10-4.48-10-10c0-5.52,4.48-10,10-10
				C358.38,339.68,362.86,344.16,362.86,349.68"/>
			<path class="st7" d="M359,410.46l-19.44-4.68c-2.98,12.4-4.57,25.35-4.57,38.66h20C355,432.23,356.16,421.8,359,410.46
				C358.88,410.94,359.12,409.98,359,410.46"/>
			<path class="st7" d="M500,279.44c-68.12,0-126.59,41.28-151.78,100.19l18.42,7.77c-0.05,0.11,0.05-0.11,0,0
				c22.08-51.9,73.39-87.96,133.35-87.96c80.08,0,145,64.92,145,145h20C665,353.32,591.13,279.44,500,279.44"/>
			<path class="st7" d="M359.28,408.12c0,5.52-4.48,10-10,10c-5.52,0-10-4.48-10-10c0-5.52,4.48-10,10-10
				C354.81,398.12,359.28,402.6,359.28,408.12"/>
			<path class="st7" d="M367.44,383.52c0,5.52-4.48,10-10,10c-5.52,0-10-4.48-10-10c0-5.52,4.48-10,10-10
				C362.96,373.52,367.44,378,367.44,383.52"/>
			<rect x="295" y="534.44" class="st8" width="60" height="300"/>
			<rect x="645" y="534.44" class="st8" width="60" height="300"/>
			<rect x="309" y="604.46" class="st9" width="20" height="100"/>
			<path class="st9" d="M329,704.46c0,5.52-4.48,10-10,10c-5.52,0-10-4.48-10-10s4.48-10,10-10C324.52,694.46,329,698.94,329,704.46
				"/>
			<path class="st9" d="M329,604.46c0,5.52-4.48,10-10,10c-5.52,0-10-4.48-10-10s4.48-10,10-10C324.52,594.46,329,598.94,329,604.46
				"/>
			<rect x="675" y="672.69" class="st9" width="20" height="100"/>
			<path class="st9" d="M695,772.69c0,5.52-4.48,10-10,10c-5.52,0-10-4.48-10-10c0-5.52,4.48-10,10-10
				C690.52,762.69,695,767.16,695,772.69"/>
			<path class="st9" d="M695,672.69c0,5.52-4.48,10-10,10c-5.52,0-10-4.48-10-10c0-5.52,4.48-10,10-10
				C690.52,662.69,695,667.16,695,672.69"/>
			<rect x="355" y="534.44" class="st4" width="290" height="300"/>
			
				<rect x="491.24" y="751.21" transform="matrix(0.7071 -0.7071 0.7071 0.7071 -379.5266 606.1608)" class="st6" width="101.39" height="20"/>
			
				<rect x="399.17" y="676.21" transform="matrix(0.7071 -0.7071 0.7071 0.7071 -337.6591 557.1969)" class="st6" width="209.25" height="20"/>
			
				<rect x="395.28" y="578.03" transform="matrix(0.7071 -0.7071 0.7071 0.7071 -272.622 517.8661)" class="st6" width="187.11" height="20"/>
			
				<rect x="504.12" y="524.44" transform="matrix(0.7071 -0.7071 0.7071 0.7071 -227.3271 520.0729)" class="st5" width="20" height="20"/>
			
				<rect x="503.06" y="499.03" transform="matrix(0.7071 -0.7071 0.7071 0.7071 -266.8743 535.5796)" class="st5" width="20" height="181.8"/>
			
				<rect x="433.43" y="603.44" transform="matrix(0.7071 -0.7071 0.7071 0.7071 -318.0358 499.1098)" class="st5" width="20" height="60"/>
			
				<rect x="447.23" y="710.86" transform="matrix(0.7071 -0.7071 0.7071 0.7071 -403.7469 546.0189)" class="st5" width="20" height="99.03"/>
			
				<rect x="390.48" y="623.24" transform="matrix(0.7071 -0.7071 0.7071 0.7071 -301.2595 539.1395)" class="st6" width="219.43" height="20"/>
			
				<rect x="435.53" y="717.72" transform="matrix(0.7071 -0.7071 0.7071 0.7071 -362.5993 580.002)" class="st6" width="166.66" height="20"/>
			
				<rect x="404.45" y="554.02" transform="matrix(0.7071 -0.7071 0.7071 0.7071 -265.1795 487.8131)" class="st6" width="103.66" height="20"/>
			
				<rect x="433.43" y="660.01" transform="matrix(0.7071 -0.7071 0.7071 0.7071 -358.0314 515.6522)" class="st5" width="20" height="60"/>
			
				<rect x="490" y="716.58" transform="matrix(0.7071 -0.7071 0.7071 0.7071 -381.4626 572.2202)" class="st5" width="20" height="60"/>
			
				<rect x="546.55" y="546.88" transform="matrix(0.7071 -0.7071 0.7071 0.7071 -244.8857 562.5207)" class="st5" width="20" height="59.94"/>
			
				<rect x="490" y="660.01" transform="matrix(0.7071 -0.7071 0.7071 0.7071 -341.4628 555.6522)" class="st5" width="20" height="60"/>
			
				<rect x="539.12" y="719.66" transform="matrix(0.7071 -0.7071 0.7071 0.7071 -361.8044 604.7402)" class="st5" width="20" height="38.93"/>
			
				<rect x="433.43" y="546.87" transform="matrix(0.7071 -0.7071 0.7071 0.7071 -278.0345 482.5399)" class="st5" width="20" height="60"/>
			
				<rect x="490" y="603.44" transform="matrix(0.7071 -0.7071 0.7071 0.7071 -301.4659 539.1113)" class="st5" width="20" height="60"/>
			
				<rect x="546.57" y="660.01" transform="matrix(0.7071 -0.7071 0.7071 0.7071 -324.8943 595.652)" class="st5" width="20" height="60"/>
			
				<rect x="560.71" y="524.44" transform="matrix(0.7071 -0.7071 0.7071 0.7071 -210.7513 560.1154)" class="st5" width="20" height="20"/>
			
				<rect x="419.23" y="524.5" transform="matrix(0.7071 -0.7071 0.7071 0.7071 -252.2316 460.065)" class="st6" width="20" height="20"/>
			<rect x="355" y="444.44" class="st9" width="290" height="90"/>
			<rect x="489.59" y="494.44" class="st4" width="100.41" height="20"/>
			<rect x="410" y="494.44" class="st4" width="47.44" height="20"/>
			<path class="st4" d="M499.59,504.44c0,5.52-4.48,10-10,10c-5.52,0-10-4.48-10-10c0-5.52,4.48-10,10-10
				C495.11,494.44,499.59,498.92,499.59,504.44"/>
			<path class="st4" d="M420,504.44c0,5.52-4.48,10-10,10c-5.52,0-10-4.48-10-10c0-5.52,4.48-10,10-10
				C415.52,494.44,420,498.92,420,504.44"/>
			<path class="st4" d="M467.44,504.44c0,5.52-4.48,10-10,10c-5.52,0-10-4.48-10-10c0-5.52,4.48-10,10-10
				C462.97,494.44,467.44,498.92,467.44,504.44"/>
			<path class="st4" d="M600,504.44c0,5.52-4.48,10-10,10c-5.52,0-10-4.48-10-10c0-5.52,4.48-10,10-10
				C595.52,494.44,600,498.92,600,504.44"/>
			<rect x="410" y="464.44" class="st4" width="180" height="20"/>
			<path class="st4" d="M420,474.44c0,5.52-4.48,10-10,10c-5.52,0-10-4.48-10-10c0-5.52,4.48-10,10-10
				C415.52,464.44,420,468.92,420,474.44"/>
			<path class="st4" d="M600,474.44c0,5.52-4.48,10-10,10c-5.52,0-10-4.48-10-10c0-5.52,4.48-10,10-10
				C595.52,464.44,600,468.92,600,474.44"/>
			<rect x="570" y="534.44" class="st9" width="20" height="180"/>
			<rect x="410" y="534.44" class="st9" width="20" height="180"/>
			<path class="st9" d="M570,714.44c0,38.66-31.34,70-70,70s-70-31.34-70-70h-20c0,49.71,40.29,90,90,90s90-40.29,90-90H570z"/>
			<path class="st9" d="M360,834.44c0,5.5-4.5,10-10,10h-55c-5.5,0-10-4.5-10-10v-30c0-5.5,4.5-10,10-10h55c5.5,0,10,4.5,10,10
				V834.44z"/>
			<path class="st9" d="M715,834.44c0,5.5-4.5,10-10,10h-55c-5.5,0-10-4.5-10-10v-30c0-5.5,4.5-10,10-10h55c5.5,0,10,4.5,10,10
				V834.44z"/>
		</g>
	</g>
</g>
<g>
	<g>
		<defs>
			<rect id="SVGID_5_" x="385.45" y="241.34" width="231.45" height="231.45"/>
		</defs>
		<clipPath id="SVGID_6_">
			<use xlink:href="#SVGID_5_"  style="overflow:visible;"/>
		</clipPath>
		<g class="st10">
			<defs>
				<rect id="SVGID_7_" x="385.45" y="241.34" width="231.45" height="231.45"/>
			</defs>
			<clipPath id="SVGID_8_">
				<use xlink:href="#SVGID_7_"  style="overflow:visible;"/>
			</clipPath>
			<path class="st11" d="M501.04,288.47c-0.07-0.11-0.17-0.11-0.24,0l-41.75,69.55c-0.07,0.11-0.03,0.25,0.08,0.32l41.59,24.65
				c0.11,0.07,0.29,0.07,0.4,0l41.77-24.65c0.11-0.06,0.15-0.21,0.08-0.32L501.04,288.47z M460.47,358.1
				c-0.11-0.06-0.15-0.21-0.08-0.32l40.5-67.66c0.07-0.11,0.17-0.11,0.24,0l40.11,67.37c0.07,0.11,0.03,0.25-0.08,0.32l-40.04,23.76
				c-0.11,0.06-0.29,0.07-0.4,0L460.47,358.1z"/>
			<path class="st11" d="M501.62,339.09l19.04,8.56c0.12,0.05,0.31,0.14,0.42,0.19l19.44,8.74c0.12,0.05,0.31,0.14,0.42,0.19
				l0.21,0.1c0.12,0.05,0.3,0.14,0.42,0.19l0.21,0.1c0.12,0.05,0.12,0.15,0.02,0.22l-0.24,0.16c-0.11,0.07-0.28,0.18-0.39,0.25
				l-0.24,0.16c-0.11,0.07-0.29,0.08-0.41,0.03l-19.44-8.85c-0.12-0.05-0.31-0.14-0.42-0.19l-18.83-8.57
				c-0.12-0.05-0.21,0.01-0.21,0.14v40.97c0,0.13-0.1,0.23-0.23,0.23h-0.76c-0.13,0-0.23-0.1-0.23-0.23V340.5
				c0-0.13-0.09-0.19-0.21-0.14l-19.4,8.81c-0.12,0.05-0.31,0.14-0.42,0.19l-19.4,8.81c-0.12,0.05-0.29,0.12-0.38,0.16
				s-0.24,0.09-0.33,0.12c-0.09,0.03-0.2-0.04-0.24-0.16l-0.02-0.06c-0.04-0.12-0.11-0.32-0.16-0.44l-0.02-0.06
				c-0.04-0.12,0.02-0.26,0.13-0.32l0.15-0.08c0.11-0.06,0.3-0.15,0.41-0.21l0.15-0.08c0.11-0.06,0.3-0.15,0.42-0.2l19.64-8.89
				c0.12-0.05,0.31-0.14,0.42-0.19l19.03-8.61c0.12-0.05,0.21-0.2,0.21-0.33v-48.7c0-0.13,0.1-0.23,0.23-0.23h0.76
				c0.13,0,0.23,0.1,0.23,0.23L501.62,339.09"/>
			<path class="st11" d="M501.21,390.82c-0.11,0.06-0.29,0.06-0.4,0l-41.68-24.14c-0.11-0.06-0.14-0.03-0.07,0.07l41.72,58.95
				c0.07,0.1,0.19,0.1,0.27,0l41.9-58.82c0.07-0.1,0.04-0.14-0.07-0.07L501.21,390.82z M501.62,391.93c0-0.13,0.09-0.28,0.2-0.35
				L540.44,369c0.11-0.06,0.14-0.03,0.06,0.07l-39.36,54.72c-0.07,0.1-0.2,0.1-0.27,0l-39.67-55.14c-0.07-0.1-0.05-0.13,0.06-0.07
				l38.93,23c0.11,0.06,0.2,0.22,0.2,0.35v32.43c0,0.13,0.1,0.23,0.23,0.23h0.76c0.13,0,0.23-0.1,0.23-0.23V391.93z"/>
		</g>
	</g>
</g>
<g>
	<g>
		<g>
			<path class="st12" d="M929.39,634.64c-4.26-3.12-8.63-6.99-11.75-11.65l-2.73-4.1c-0.58-0.87-1.66-1.25-2.66-0.96
				c-1,0.31-1.68,1.23-1.68,2.27v37.13c-1.39-0.81-3-1.31-4.74-1.31c-5.22,0-9.46,4.24-9.46,9.46c0,5.22,4.24,9.46,9.46,9.46
				c5.22,0,9.46-4.24,9.46-9.46v-37.51c3.35,4.22,7.53,7.72,11.3,10.48c1.85,1.35,2.91,3.45,2.91,5.72c0,3.91-3.18,7.09-7.09,7.09
				c-1.31,0-2.37,1.06-2.37,2.37s1.06,2.37,2.37,2.37c6.53,0,11.84-5.3,11.84-11.84C934.24,640.43,932.43,636.87,929.39,634.64z"/>
		</g>
	</g>
	<g>
		<g>
			<path class="st12" d="M890.82,602.32l-34.01,9.63c-1.04,0.29-1.75,1.25-1.75,2.31v32.62c-1.41-0.83-3.06-1.33-4.81-1.33
				c-5.3,0-9.63,4.31-9.63,9.63s4.31,9.63,9.63,9.63s9.63-4.31,9.63-9.63c0-0.54,0-29.46,0-29.46l29.19-8.26v19.78
				c-1.41-0.83-3.06-1.33-4.81-1.33c-5.3,0-9.63,4.31-9.63,9.63c0,5.33,4.31,9.63,9.63,9.63c5.33,0,9.63-4.31,9.63-9.63
				c0-0.54,0-40.9,0-40.9C893.88,603.04,892.36,601.88,890.82,602.32z"/>
		</g>
	</g>
</g>
<g>
	<g>
		<g>
			<path class="st12" d="M111.38,48.14c-5.17,0-9.38,4.21-9.38,9.38s4.21,9.38,9.38,9.38c5.17,0,9.38-4.21,9.38-9.38
				C120.76,52.35,116.55,48.14,111.38,48.14z M111.38,61.59c-2.24,0-4.07-1.82-4.07-4.07c0-2.24,1.83-4.07,4.07-4.07
				c2.24,0,4.07,1.82,4.07,4.07C115.45,59.76,113.62,61.59,111.38,61.59z"/>
		</g>
	</g>
	<g>
		<g>
			<path class="st12" d="M100.96,47.1c1.04-1.04,1.04-2.72,0-3.75c-1.04-1.04-2.72-1.04-3.75,0c-7.81,7.81-7.81,20.53,0,28.34
				c0.52,0.52,1.2,0.78,1.88,0.78c0.68,0,1.36-0.26,1.88-0.78c1.04-1.04,1.04-2.72,0-3.75C95.22,62.19,95.22,52.84,100.96,47.1z"/>
		</g>
	</g>
	<g>
		<g>
			<path class="st12" d="M125.55,43.35c-1.04-1.04-2.72-1.04-3.75,0s-1.04,2.72,0,3.75c2.79,2.79,4.33,6.49,4.33,10.42
				s-1.54,7.62-4.33,10.42c-1.04,1.04-1.04,2.72,0,3.75c0.52,0.52,1.2,0.78,1.88,0.78c0.68,0,1.36-0.26,1.88-0.78
				c3.8-3.8,5.89-8.83,5.89-14.17C131.43,52.18,129.34,47.14,125.55,43.35z"/>
		</g>
	</g>
	<g>
		<g>
			<path class="st12" d="M84.47,57.56c0-7.18,2.81-13.94,7.91-19.04c1.04-1.04,1.04-2.72,0-3.75c-1.04-1.04-2.72-1.04-3.75,0
				c-6.11,6.1-9.47,14.2-9.47,22.79c0,8.59,3.36,16.69,9.47,22.79c0.52,0.52,1.2,0.78,1.88,0.78c0.68,0,1.36-0.26,1.88-0.78
				c1.04-1.04,1.04-2.72,0-3.75C87.28,71.5,84.47,64.74,84.47,57.56z"/>
		</g>
	</g>
	<g>
		<g>
			<path class="st12" d="M134.13,34.77c-1.04-1.04-2.72-1.04-3.75,0c-1.04,1.04-1.04,2.72,0,3.75c10.5,10.5,10.5,27.58,0,38.08
				c-1.04,1.04-1.04,2.72,0,3.75c0.52,0.52,1.2,0.78,1.88,0.78c0.68,0,1.36-0.26,1.88-0.78C146.7,67.79,146.7,47.34,134.13,34.77z"
				/>
		</g>
	</g>
	<g>
		<g>
			
				<rect x="113.8" y="75.7" transform="matrix(0.7138 -0.7003 0.7003 0.7138 -33.4368 108.8396)" class="st12" width="5.31" height="39.28"/>
		</g>
	</g>
	<g>
		<g>
			
				<rect x="86.67" y="92.68" transform="matrix(0.7015 -0.7127 0.7127 0.7015 -36.1988 104.2463)" class="st12" width="39.34" height="5.31"/>
		</g>
	</g>
	<g>
		<g>
			<path class="st12" d="M134.84,114.37l-18.48-51.39c-0.5-1.38-2.01-2.09-3.4-1.6c-1.38,0.5-2.09,2.02-1.6,3.39l18.48,51.39
				c0.39,1.08,1.41,1.76,2.5,1.76c0.3,0,0.6-0.05,0.9-0.16C134.62,117.27,135.33,115.75,134.84,114.37z"/>
		</g>
	</g>
	<g>
		<g>
			<path class="st12" d="M109.89,61.39c-1.37-0.5-2.9,0.21-3.4,1.59l-18.57,51.39c-0.5,1.38,0.21,2.9,1.59,3.4
				c0.3,0.11,0.6,0.16,0.9,0.16c1.09,0,2.1-0.67,2.5-1.75l18.57-51.39C111.98,63.41,111.27,61.89,109.89,61.39z"/>
		</g>
	</g>
</g>
<g>
	<g>
		<path class="st12" d="M92.83,639.98c-6.04,0-10.97,4.93-10.97,10.97s4.93,10.97,10.97,10.97s10.97-4.93,10.97-10.97
			S98.86,639.98,92.83,639.98z M92.83,657.27c-3.49,0-6.33-2.84-6.33-6.33s2.84-6.33,6.33-6.33s6.33,2.84,6.33,6.33
			S96.32,657.27,92.83,657.27z"/>
		<path class="st12" d="M138.54,642.45h-24.71c-1.28,0-2.32,1.03-2.32,2.32c0,1.28,1.03,2.32,2.32,2.32h24.71
			c1.28,0,2.32-1.03,2.32-2.32C140.86,643.48,139.82,642.45,138.54,642.45z"/>
		<path class="st12" d="M138.54,654.8h-24.71c-1.28,0-2.32,1.03-2.32,2.32c0,1.28,1.03,2.32,2.32,2.32h24.71
			c1.28,0,2.32-1.03,2.32-2.32C140.86,655.84,139.82,654.8,138.54,654.8z"/>
		<path class="st12" d="M141.63,615.27h-1.5l-31.8-9.78c-1.22-0.37-2.52,0.31-2.89,1.53c-0.37,1.22,0.31,2.52,1.53,2.89l17.39,5.36
			H81.09c-5.11,0-9.27,4.15-9.27,9.27v37.99c0,5.11,4.15,9.27,9.27,9.27h60.54c5.11,0,9.27-4.15,9.27-9.27c0-1.2,0-37.45,0-37.99
			C150.9,619.42,146.74,615.27,141.63,615.27L141.63,615.27z M76.45,624.53c0-2.55,2.08-4.63,4.63-4.63h60.54
			c2.55,0,4.63,2.08,4.63,4.63v5.56H95.14v-2.63c0-1.28-1.03-2.32-2.32-2.32s-2.32,1.03-2.32,2.32v2.63H76.45V624.53z
			 M141.63,667.16H81.09c-2.55,0-4.63-2.08-4.63-4.63v-27.8h69.81v27.8C146.26,665.07,144.18,667.16,141.63,667.16z"/>
	</g>
</g>
<g>
	<g>
		<g>
			<path class="st12" d="M912.81,77.25c0-1.58-1.22-2.81-2.81-2.81s-2.81,1.22-2.81,2.81c0,10.91-8.85,19.76-19.76,19.76
				c-10.91,0-19.76-8.85-19.76-19.76c0-1.58-1.22-2.81-2.81-2.81c-1.58,0-2.81,1.22-2.81,2.81c0,12.97,9.69,23.88,22.57,25.28V110
				h-10.16c-1.58,0-2.81,1.22-2.81,2.81s1.22,2.81,2.81,2.81h25.92c1.58,0,2.81-1.22,2.81-2.81s-1.22-2.81-2.81-2.81h-10.15v-7.47
				C903.1,101.12,912.81,90.2,912.81,77.25z"/>
		</g>
	</g>
	<g>
		<g>
			<path class="st12" d="M887.43,36.3c-8.58,0-15.57,6.99-15.57,15.57v25.28c0,8.67,6.99,15.57,15.57,15.67
				c8.58,0,15.57-6.99,15.57-15.57V51.88C903.01,43.3,896.01,36.3,887.43,36.3z"/>
		</g>
	</g>
</g>
<g>
	<g>
		<rect x="219.96" y="452.02" class="st13" width="81.96" height="40.98"/>
		<rect x="219.96" y="493" class="st13" width="81.96" height="40.98"/>
		<rect x="219.96" y="533.98" class="st13" width="81.96" height="40.98"/>
		<circle class="st13" cx="219.96" cy="472.51" r="20.49"/>
		<circle class="st13" cx="219.96" cy="513.49" r="20.49"/>
		<circle class="st13" cx="219.96" cy="554.47" r="20.49"/>
	</g>
	<g>
		<rect x="698.08" y="452.02" class="st13" width="81.96" height="40.98"/>
		<rect x="698.08" y="493" class="st13" width="81.96" height="40.98"/>
		<rect x="698.08" y="533.98" class="st13" width="81.96" height="40.98"/>
		<circle class="st13" cx="780.04" cy="472.51" r="20.49"/>
		<circle class="st13" cx="780.04" cy="513.49" r="20.49"/>
		<circle class="st13" cx="780.04" cy="554.47" r="20.49"/>
	</g>
	<path class="st14" d="M317.05,375.99"/>
	<path class="st14" d="M307.39,405.6L307.39,405.6C307.47,405.27,307.43,405.44,307.39,405.6z"/>
	<rect x="219.96" y="574.96" class="st15" width="81.96" height="409.82"/>
	<rect x="698.08" y="574.96" class="st15" width="81.96" height="409.82"/>
	<rect x="302.61" y="575.67" class="st13" width="394.79" height="408.4"/>
	<linearGradient id="SVGID_9_" gradientUnits="userSpaceOnUse" x1="390.7157" y1="752.5516" x2="609.2844" y2="752.5516">
		<stop  offset="0" style="stop-color:#9BFEC0"/>
		<stop  offset="0.15" style="stop-color:#A6FBF4"/>
		<stop  offset="0.85" style="stop-color:#EA9EFF"/>
		<stop  offset="1" style="stop-color:#F7994B"/>
	</linearGradient>
	<path class="st16" d="M390.72,574.96v245.89c0,60.36,48.93,109.28,109.28,109.28s109.28-48.93,109.28-109.28V574.96H390.72z"/>
	<g>
		<linearGradient id="SVGID_10_" gradientUnits="userSpaceOnUse" x1="497.9367" y1="884.7368" x2="616.638" y2="884.7368">
			<stop  offset="0" style="stop-color:#3DDEED"/>
			<stop  offset="1" style="stop-color:#3DDEED;stop-opacity:0"/>
		</linearGradient>
		
			<rect x="543.63" y="815.49" transform="matrix(0.7071 0.7071 -0.7071 0.7071 788.8291 -134.9283)" class="st17" width="27.32" height="138.5"/>
		<linearGradient id="SVGID_11_" gradientUnits="userSpaceOnUse" x1="393.7414" y1="782.2831" x2="616.638" y2="782.2831">
			<stop  offset="0" style="stop-color:#3DDEED"/>
			<stop  offset="1" style="stop-color:#3DDEED;stop-opacity:0"/>
		</linearGradient>
		
			<rect x="491.53" y="639.36" transform="matrix(0.7071 0.7071 -0.7071 0.7071 701.1243 -128.0976)" class="st18" width="27.32" height="285.85"/>
		<linearGradient id="SVGID_12_" gradientUnits="userSpaceOnUse" x1="384.0002" y1="648.1691" x2="585.5046" y2="648.1691">
			<stop  offset="0" style="stop-color:#3DDEED"/>
			<stop  offset="1" style="stop-color:#3DDEED;stop-opacity:0"/>
		</linearGradient>
		
			<rect x="471.09" y="520.37" transform="matrix(0.7071 0.7071 -0.7071 0.7071 600.3054 -152.9274)" class="st19" width="27.32" height="255.6"/>
		<linearGradient id="SVGID_13_" gradientUnits="userSpaceOnUse" x1="499.2455" y1="574.9647" x2="539.3323" y2="574.9647">
			<stop  offset="0" style="stop-color:#3DDEED"/>
			<stop  offset="1" style="stop-color:#3DDEED;stop-opacity:0"/>
		</linearGradient>
		
			<rect x="505.63" y="561.3" transform="matrix(0.7071 -0.7071 0.7071 0.7071 -254.4652 535.5959)" class="st20" width="27.32" height="27.32"/>
		<linearGradient id="SVGID_14_" gradientUnits="userSpaceOnUse" x1="419.6561" y1="650.7684" x2="616.0378" y2="650.7684">
			<stop  offset="0" style="stop-color:#3DDEED"/>
			<stop  offset="1" style="stop-color:#3DDEED;stop-opacity:0"/>
		</linearGradient>
		
			<rect x="504.19" y="526.59" transform="matrix(0.7071 -0.7071 0.7071 0.7071 -308.4889 556.7787)" class="st21" width="27.32" height="248.36"/>
		<linearGradient id="SVGID_15_" gradientUnits="userSpaceOnUse" x1="383.362" y1="710.1971" x2="462.0866" y2="710.1971">
			<stop  offset="0" style="stop-color:#3DDEED"/>
			<stop  offset="1" style="stop-color:#3DDEED;stop-opacity:0"/>
		</linearGradient>
		
			<rect x="409.06" y="669.22" transform="matrix(0.7071 -0.7071 0.7071 0.7071 -378.3721 506.9232)" class="st22" width="27.32" height="81.96"/>
		<linearGradient id="SVGID_16_" gradientUnits="userSpaceOnUse" x1="383.362" y1="883.5984" x2="499.7865" y2="883.5984">
			<stop  offset="0" style="stop-color:#3DDEED"/>
			<stop  offset="1" style="stop-color:#3DDEED;stop-opacity:0"/>
		</linearGradient>
		
			<rect x="427.91" y="815.96" transform="matrix(0.7071 -0.7071 0.7071 0.7071 -495.4644 571.0402)" class="st23" width="27.32" height="135.28"/>
		<linearGradient id="SVGID_17_" gradientUnits="userSpaceOnUse" x1="383.9079" y1="709.9242" x2="616.638" y2="709.9242">
			<stop  offset="0" style="stop-color:#3DDEED"/>
			<stop  offset="1" style="stop-color:#3DDEED;stop-opacity:0"/>
		</linearGradient>
		
			<rect x="486.61" y="560.04" transform="matrix(0.7071 0.7071 -0.7071 0.7071 648.5187 -145.8144)" class="st24" width="27.32" height="299.76"/>
		<linearGradient id="SVGID_18_" gradientUnits="userSpaceOnUse" x1="434.8847" y1="838.9872" x2="616.638" y2="838.9872">
			<stop  offset="0" style="stop-color:#3DDEED"/>
			<stop  offset="1" style="stop-color:#3DDEED;stop-opacity:0"/>
		</linearGradient>
		
			<rect x="512.1" y="725.15" transform="matrix(0.7071 0.7071 -0.7071 0.7071 747.2454 -126.0358)" class="st25" width="27.32" height="227.67"/>
		<linearGradient id="SVGID_19_" gradientUnits="userSpaceOnUse" x1="379.8299" y1="615.3685" x2="500.7245" y2="615.3685">
			<stop  offset="0" style="stop-color:#3DDEED"/>
			<stop  offset="1" style="stop-color:#3DDEED;stop-opacity:0"/>
		</linearGradient>
		
			<rect x="426.62" y="544.57" transform="matrix(0.7071 0.7071 -0.7071 0.7071 564.0854 -131.0857)" class="st26" width="27.32" height="141.6"/>
		<linearGradient id="SVGID_20_" gradientUnits="userSpaceOnUse" x1="383.362" y1="787.4728" x2="462.0866" y2="787.4728">
			<stop  offset="0" style="stop-color:#3DDEED"/>
			<stop  offset="1" style="stop-color:#3DDEED;stop-opacity:0"/>
		</linearGradient>
		
			<rect x="409.06" y="746.49" transform="matrix(0.7071 -0.7071 0.7071 0.7071 -433.0143 529.5566)" class="st27" width="27.32" height="81.96"/>
		<linearGradient id="SVGID_21_" gradientUnits="userSpaceOnUse" x1="460.6377" y1="864.7485" x2="539.3623" y2="864.7485">
			<stop  offset="0" style="stop-color:#3DDEED"/>
			<stop  offset="1" style="stop-color:#3DDEED;stop-opacity:0"/>
		</linearGradient>
		
			<rect x="486.34" y="823.77" transform="matrix(0.7071 -0.7071 0.7071 0.7071 -465.0229 606.8323)" class="st28" width="27.32" height="81.96"/>
		<linearGradient id="SVGID_22_" gradientUnits="userSpaceOnUse" x1="537.9134" y1="632.8914" x2="616.5779" y2="632.8914">
			<stop  offset="0" style="stop-color:#3DDEED"/>
			<stop  offset="1" style="stop-color:#3DDEED;stop-opacity:0"/>
		</linearGradient>
		
			<rect x="563.59" y="591.95" transform="matrix(0.7071 -0.7071 0.7071 0.7071 -278.4504 593.5439)" class="st29" width="27.32" height="81.88"/>
		<linearGradient id="SVGID_23_" gradientUnits="userSpaceOnUse" x1="460.6377" y1="787.4728" x2="539.3623" y2="787.4728">
			<stop  offset="0" style="stop-color:#3DDEED"/>
			<stop  offset="1" style="stop-color:#3DDEED;stop-opacity:0"/>
		</linearGradient>
		
			<rect x="486.34" y="746.49" transform="matrix(0.7071 -0.7071 0.7071 0.7071 -410.3808 584.1989)" class="st30" width="27.32" height="81.96"/>
		<linearGradient id="SVGID_24_" gradientUnits="userSpaceOnUse" x1="537.9134" y1="854.5736" x2="596.2881" y2="854.5736">
			<stop  offset="0" style="stop-color:#3DDEED"/>
			<stop  offset="1" style="stop-color:#3DDEED;stop-opacity:0"/>
		</linearGradient>
		
			<rect x="553.44" y="827.98" transform="matrix(0.7071 -0.7071 0.7071 0.7071 -438.1748 651.2996)" class="st31" width="27.32" height="53.18"/>
		<linearGradient id="SVGID_25_" gradientUnits="userSpaceOnUse" x1="383.362" y1="632.9214" x2="462.0866" y2="632.9214">
			<stop  offset="0" style="stop-color:#3DDEED"/>
			<stop  offset="1" style="stop-color:#3DDEED;stop-opacity:0"/>
		</linearGradient>
		
			<rect x="409.06" y="591.94" transform="matrix(0.7071 -0.7071 0.7071 0.7071 -323.7299 484.2896)" class="st32" width="27.32" height="81.96"/>
		<linearGradient id="SVGID_26_" gradientUnits="userSpaceOnUse" x1="460.6377" y1="710.1971" x2="539.3623" y2="710.1971">
			<stop  offset="0" style="stop-color:#3DDEED"/>
			<stop  offset="1" style="stop-color:#3DDEED;stop-opacity:0"/>
		</linearGradient>
		
			<rect x="486.34" y="669.22" transform="matrix(0.7071 -0.7071 0.7071 0.7071 -355.7386 561.5653)" class="st33" width="27.32" height="81.96"/>
		<linearGradient id="SVGID_27_" gradientUnits="userSpaceOnUse" x1="537.9134" y1="787.4728" x2="616.638" y2="787.4728">
			<stop  offset="0" style="stop-color:#3DDEED"/>
			<stop  offset="1" style="stop-color:#3DDEED;stop-opacity:0"/>
		</linearGradient>
		
			<rect x="563.62" y="746.49" transform="matrix(0.7071 -0.7071 0.7071 0.7071 -387.7472 638.841)" class="st34" width="27.32" height="81.96"/>
		<linearGradient id="SVGID_28_" gradientUnits="userSpaceOnUse" x1="576.5512" y1="574.9647" x2="616.638" y2="574.9647">
			<stop  offset="0" style="stop-color:#3DDEED"/>
			<stop  offset="1" style="stop-color:#3DDEED;stop-opacity:0"/>
		</linearGradient>
		
			<rect x="582.93" y="561.3" transform="matrix(0.7071 -0.7071 0.7071 0.7071 -231.8229 590.2593)" class="st35" width="27.32" height="27.32"/>
		<linearGradient id="SVGID_29_" gradientUnits="userSpaceOnUse" x1="383.2823" y1="575.0443" x2="423.3691" y2="575.0443">
			<stop  offset="0" style="stop-color:#3DDEED"/>
			<stop  offset="1" style="stop-color:#3DDEED;stop-opacity:0"/>
		</linearGradient>
		
			<rect x="389.67" y="561.38" transform="matrix(0.7071 0.7071 -0.7071 0.7071 524.7491 -116.7678)" class="st36" width="27.32" height="27.32"/>
	</g>
	<linearGradient id="SVGID_30_" gradientUnits="userSpaceOnUse" x1="376.5428" y1="753.7407" x2="623.4572" y2="753.7407">
		<stop  offset="0" style="stop-color:#9BFEC0"/>
		<stop  offset="0.15" style="stop-color:#A6FBF4"/>
		<stop  offset="0.85" style="stop-color:#EA9EFF"/>
		<stop  offset="1" style="stop-color:#F7994B"/>
	</linearGradient>
	<path class="st37" d="M404.38,563.68v257.17c0,52.81,42.81,95.62,95.62,95.62s95.62-42.81,95.62-95.62l0.97-257.17h26.35v257.17
		c0,67.9-55.04,122.94-122.94,122.94s-122.94-55.04-122.94-122.94V563.68H404.38z"/>
	<path class="st38" d="M892.18,562.78h0.5V151.92l-3.23-0.05c41.01-1.07,73.94-34.63,73.94-75.91C963.39,34.01,929.38,0,887.43,0
		c-40.2,0-73.09,31.24-75.76,70.77H188.22l0,0.63C185.86,31.57,152.83,0,112.41,0C70.46,0,36.45,34.01,36.45,75.96
		c0,40.42,31.58,73.45,71.41,75.81l-0.27,0v411.02h0.23c-39.81,2.38-71.36,35.4-71.36,75.81c0,41.95,34.01,75.96,75.96,75.96
		c40.42,0,73.46-31.58,75.81-71.42v0.22h623.56v-0.22c2.35,39.83,35.39,71.42,75.81,71.42c41.95,0,75.96-34.01,75.96-75.96
		C963.55,598.18,931.99,565.16,892.18,562.78z M823.41,116.8l-0.18-0.24L567.64,302.13c0,0,0,0,0,0
		c-15.82-19.12-39.72-31.29-66.47-31.29c-27.19,0-51.44,12.58-67.24,32.25c0,0,0,0,0,0l0,0L176.75,116.35l-0.21,0.29
		c6.75-10.61,10.94-23,11.69-36.32h623.37C812.37,93.71,816.6,106.15,823.41,116.8z M501.18,281.1c41.95,0,75.96,34.01,75.96,75.96
		s-34.01,75.96-75.96,75.96s-75.96-34.01-75.96-75.96S459.23,281.1,501.18,281.1z M587.4,357.06c0-17.43-5.17-33.66-14.07-47.22
		c0,0,0,0,0,0l0,0l255.52-185.52l0-0.01c13.07,15.81,32.41,26.24,54.22,27.47v410.99c-21.67,1.27-40.9,11.63-53.94,27.32l0.04-0.05
		L573.33,404.29l0,0c0,0,0,0,0,0C582.23,390.72,587.4,374.5,587.4,357.06z M887.43,9.04c36.96,0,66.92,29.96,66.92,66.92
		c0,36.96-29.96,66.92-66.92,66.92c-36.96,0-66.92-29.96-66.92-66.92C820.52,39,850.48,9.04,887.43,9.04z M45.49,75.96
		c0-36.96,29.96-66.92,66.92-66.92c36.96,0,66.92,29.96,66.92,66.92c0,36.96-29.96,66.92-66.92,66.92
		C75.45,142.88,45.49,112.92,45.49,75.96z M114.25,151.87c22.96-0.55,43.39-11.26,56.96-27.83l-0.06,0.08l257.21,186.75l0,0
		c-8.49,13.35-13.4,29.2-13.4,46.19c0,17,4.92,32.84,13.41,46.2c0,0,0,0,0,0L170.93,590.17l0.02,0.02
		c-13.02-15.73-32.26-26.11-53.94-27.4h0.2V151.92L114.25,151.87z M112.41,705.51c-36.96,0-66.92-29.96-66.92-66.92
		c0-36.96,29.96-66.92,66.92-66.92c36.96,0,66.92,29.96,66.92,66.92C179.33,675.55,149.37,705.51,112.41,705.51z M188.22,633.8v0.23
		c-0.79-13.35-5.03-25.76-11.84-36.37l0.18,0.25l257.37-186.87l0,0c0,0,0,0,0,0c15.8,19.66,40.05,32.24,67.24,32.24
		c26.74,0,50.64-12.18,66.46-31.29c0,0,0,0,0,0l0,0l255.88,185.78l0.2-0.28c-6.87,10.65-11.15,23.13-11.94,36.55v-0.24H188.22z
		 M887.59,705.51c-36.96,0-66.92-29.96-66.92-66.92c0-36.96,29.96-66.92,66.92-66.92c36.96,0,66.92,29.96,66.92,66.92
		C954.51,675.55,924.55,705.51,887.59,705.51z"/>
	<rect x="301.92" y="452.02" class="st15" width="396.16" height="122.94"/>
	<linearGradient id="SVGID_31_" gradientUnits="userSpaceOnUse" x1="219.9589" y1="311.9992" x2="780.0411" y2="311.9992">
		<stop  offset="0" style="stop-color:#9BFEC0"/>
		<stop  offset="0.33" style="stop-color:#A6FBF4"/>
		<stop  offset="0.66" style="stop-color:#EA9EFF"/>
		<stop  offset="1" style="stop-color:#F7994B"/>
	</linearGradient>
	<path class="st39" d="M698.02,254c-50.68-50.68-120.69-82.02-198.02-82.02c-39.57,0-77.21,8.2-111.34,23.01
		c-33.98,14.74-64.45,36.02-89.85,62.24c-2.67,2.49-4.36,6.04-4.36,9.98c0,7.54,6.12,13.66,13.66,13.66c3.48,0,6.64-1.31,9.05-3.45
		l0.01,0.01l0.21-0.2c0.26-0.24,0.5-0.48,0.74-0.74l3.18-3.17c0.05-0.05,0.11-0.11,0.16-0.16c-12.61,12.59-23.89,26.5-33.63,41.51
		c0.15-0.24,0.3-0.48,0.45-0.71l-0.01,0c1.4-2.15,2.22-4.7,2.22-7.46c0-7.54-6.12-13.66-13.66-13.66c-4.79,0-9,2.47-11.44,6.2
		l-0.01-0.01c-8.42,12.88-15.8,26.49-22.03,40.72l0.01,0c-0.73,1.68-1.15,4.14-1.15,6.09c0,7.54,6.12,13.05,13.66,13.05
		c4.49,0,8.81-1.92,11.45-5.16c-0.68,0.9-1.26,1.88-1.69,2.94c-5.17,12.71-9.15,26.05-12.22,39.69c0.07-0.3,0.13-0.61,0.2-0.91
		l-0.02,0c0.23-0.98,0.36-2,0.36-3.06c0-7.54-6.12-13.66-13.66-13.66c-6.49,0-11.92,4.53-13.31,10.61l-0.01,0
		c-0.01,0.05-0.02,0.09-0.03,0.14c-0.02,0.09-0.04,0.18-0.06,0.27c-1.98,8.73-3.56,17.62-4.71,26.64l0.01,0
		c-0.07,0.57-0.12,1.15-0.12,1.74c0,7.54,6.12,13.66,13.66,13.66c6.95,0,12.68-5.2,13.54-11.92l0.01,0
		c0.94-7.38,2.21-14.65,3.77-21.82c-0.14,0.78-0.22,1.57-0.22,2.39c0,7.54,6.12,13.66,13.66,13.66c6.53,0,12.02-4.58,13.37-10.71
		c0.2-0.9,0.41-1.8,0.62-2.7c-2.88,12.35-4.76,25.09-5.52,38.13c0.01-0.14,0.01-0.28,0.02-0.42l-0.02,0
		c0.02-0.27,0.04-0.55,0.04-0.82c0-7.54-6.12-13.66-13.66-13.66c-7.27,0-13.19,5.68-13.62,12.84l-0.01,0
		c-0.28,4.68-0.42,9.4-0.44,14.14c-0.59-7.01-6.52-12.52-13.68-12.52c-7.54,0-13.66,6.12-13.66,13.66h27.32h0.08h27.25h27.32
		c0-16.69,1.58-30.94,5.47-46.42c-0.08,0.33-0.04,0.16,0,0l-0.01,0c0.25-1.03,0.39-2.09,0.39-3.2c0-7.54-6.12-13.66-13.66-13.66
		c-6.4,0-11.76,4.41-13.24,10.36c2.64-11.01,6.08-21.71,10.28-32.02l-0.01-0.01c0.65-1.59,1.01-3.32,1.01-5.14
		c0-7.54-6.12-13.66-13.66-13.66c-4.25,0-8.14,1.88-10.7,4.89c0.46-0.64,0.87-1.31,1.19-2.04c5.43-12.4,11.26-24.68,18.53-35.95l0,0
		c-1.38,2.13-2.18,4.67-2.18,7.39c0,7.54,6.12,13.66,13.66,13.66c4.82,0,9.05-2.5,11.48-6.27l0.01,0c0.24-0.38,0.5-0.74,0.75-1.12
		c-7.14,10.92-13.37,22.5-18.55,34.63c0,0,0,0.01,0,0.01c0,0,0,0,0,0h0c-0.69,1.63-1.07,3.43-1.07,5.31
		c0,7.54,6.12,13.66,13.66,13.66c5.7,0,10.58-3.5,12.63-8.46C348.07,303.16,418.14,253.94,500,253.94
		c109.4,0,198.08,88.68,198.08,198.08h27.32h27.32h13.66h13.66C780.04,374.69,748.7,304.68,698.02,254z"/>
	<g>
		<rect x="485.78" y="520.32" class="st13" width="137.16" height="27.32"/>
		<rect x="377.06" y="520.32" class="st13" width="64.81" height="27.32"/>
		<circle class="st13" cx="485.78" cy="533.98" r="13.66"/>
		<circle class="st13" cx="377.06" cy="533.98" r="13.66"/>
		<circle class="st13" cx="441.87" cy="533.98" r="13.66"/>
		<circle class="st13" cx="622.94" cy="533.98" r="13.66"/>
	</g>
	<g>
		<rect x="377.06" y="479.34" class="st13" width="245.89" height="27.32"/>
		<circle class="st13" cx="377.06" cy="493" r="13.66"/>
		<circle class="st13" cx="622.94" cy="493" r="13.66"/>
	</g>
	<g>
		<path class="st15" d="M312.17,984.78c0,7.51-6.15,13.66-13.66,13.66h-75.13c-7.51,0-13.66-6.15-13.66-13.66V943.8
			c0-7.51,6.15-13.66,13.66-13.66h75.13c7.51,0,13.66,6.15,13.66,13.66V984.78z"/>
	</g>
	<g>
		<path class="st15" d="M790.29,984.78c0,7.51-6.15,13.66-13.66,13.66h-75.13c-7.51,0-13.66-6.15-13.66-13.66V943.8
			c0-7.51,6.15-13.66,13.66-13.66h75.13c7.51,0,13.66,6.15,13.66,13.66V984.78z"/>
	</g>
	<g>
		<polygon class="st38" points="623.49,452.55 699.63,507.83 699.63,495.99 639.79,452.55 		"/>
		<polygon class="st38" points="302.73,494.48 360.47,452.55 376.78,452.55 302.73,506.32 		"/>
	</g>
</g>
</svg>
