<?xml version="1.0" encoding="utf-8"?>
<!-- Generator: Adobe Illustrator 23.0.1, SVG Export Plug-In . SVG Version: 6.00 Build 0)  -->
<svg version="1.1" id="Layer_1" xmlns="http://www.w3.org/2000/svg" xmlns:xlink="http://www.w3.org/1999/xlink" x="0px" y="0px"
	 viewBox="0 0 1000 1000" style="enable-background:new 0 0 1000 1000;" xml:space="preserve">
<style type="text/css">
	.st0{display:none;}
	.st1{display:inline;fill:#DEB887;}
	.st2{fill:#DEB887;}
	.st3{fill:#FF7F50;}
	.st4{fill:#5B270B;}
	.st5{fill:url(#SVGID_1_);}
	.st6{fill:#5B270B;stroke:url(#SVGID_2_);stroke-width:1.2397;stroke-miterlimit:10;}
	.st7{fill:#5B270B;stroke:url(#SVGID_3_);stroke-width:1.2397;stroke-miterlimit:10;}
	.st8{fill:#5B270B;stroke:url(#SVGID_4_);stroke-width:1.2397;stroke-miterlimit:10;}
	.st9{fill:#5B270B;stroke:url(#SVGID_5_);stroke-width:1.2397;stroke-miterlimit:10;}
	.st10{fill:#5B270B;stroke:url(#SVGID_6_);stroke-width:1.2397;stroke-miterlimit:10;}
	.st11{fill:#5B270B;stroke:url(#SVGID_7_);stroke-width:1.2397;stroke-miterlimit:10;}
	.st12{fill:#5B270B;stroke:url(#SVGID_8_);stroke-width:1.2397;stroke-miterlimit:10;}
	.st13{fill:#5B270B;stroke:url(#SVGID_9_);stroke-width:1.2397;stroke-miterlimit:10;}
	.st14{fill:#5B270B;stroke:url(#SVGID_10_);stroke-width:1.2397;stroke-miterlimit:10;}
	.st15{fill:#5B270B;stroke:url(#SVGID_11_);stroke-width:1.2397;stroke-miterlimit:10;}
	.st16{fill:#5B270B;stroke:url(#SVGID_12_);stroke-width:1.2397;stroke-miterlimit:10;}
	.st17{fill:#5B270B;stroke:url(#SVGID_13_);stroke-width:1.2397;stroke-miterlimit:10;}
	.st18{fill:#5B270B;stroke:url(#SVGID_14_);stroke-width:1.2397;stroke-miterlimit:10;}
	.st19{fill:#5B270B;stroke:url(#SVGID_15_);stroke-width:1.2397;stroke-miterlimit:10;}
	.st20{fill:#5B270B;stroke:url(#SVGID_16_);stroke-width:1.2397;stroke-miterlimit:10;}
	.st21{fill:#5B270B;stroke:url(#SVGID_17_);stroke-width:1.2397;stroke-miterlimit:10;}
	.st22{fill:#5B270B;stroke:url(#SVGID_18_);stroke-width:1.2397;stroke-miterlimit:10;}
	.st23{fill:#5B270B;stroke:url(#SVGID_19_);stroke-width:1.2397;stroke-miterlimit:10;}
	.st24{fill:#5B270B;stroke:url(#SVGID_20_);stroke-width:1.2397;stroke-miterlimit:10;}
	.st25{fill:#5B270B;stroke:url(#SVGID_21_);stroke-width:1.2397;stroke-miterlimit:10;}
	.st26{fill:#5B270B;stroke:url(#SVGID_22_);stroke-width:1.2397;stroke-miterlimit:10;}
	.st27{fill:url(#SVGID_23_);}
</style>
<g class="st0">
	
		<rect x="490" y="538.59" transform="matrix(0.7071 0.7071 -0.7071 0.7071 534.3559 -192.8761)" class="st1" width="20" height="20"/>
	
		<rect x="461.72" y="566.87" transform="matrix(0.7071 0.7071 -0.7071 0.7071 546.0716 -164.5918)" class="st1" width="20" height="20"/>
	
		<rect x="433.43" y="595.16" transform="matrix(0.7071 0.7071 -0.7071 0.7071 557.7874 -136.3076)" class="st1" width="20" height="20"/>
	
		<rect x="490" y="595.16" transform="matrix(0.7071 0.7071 -0.7071 0.7071 574.3559 -176.3076)" class="st1" width="20" height="20"/>
	
		<rect x="518.28" y="566.87" transform="matrix(0.7071 0.7071 -0.7071 0.7071 562.6401 -204.5918)" class="st1" width="20" height="20"/>
	
		<rect x="546.57" y="595.16" transform="matrix(0.7071 0.7071 -0.7071 0.7071 590.9244 -216.3076)" class="st1" width="20" height="20"/>
	
		<rect x="518.28" y="623.44" transform="matrix(0.7071 0.7071 -0.7071 0.7071 602.6401 -188.0233)" class="st1" width="20" height="20"/>
	
		<rect x="546.57" y="651.72" transform="matrix(0.7071 0.7071 -0.7071 0.7071 630.9244 -199.739)" class="st1" width="20" height="20"/>
	
		<rect x="490" y="651.72" transform="matrix(0.7071 0.7071 -0.7071 0.7071 614.3559 -159.739)" class="st1" width="20" height="20"/>
	
		<rect x="518.28" y="680.01" transform="matrix(0.7071 0.7071 -0.7071 0.7071 642.6401 -171.4547)" class="st1" width="20" height="20"/>
	
		<rect x="490" y="708.29" transform="matrix(0.7071 0.7071 -0.7071 0.7071 654.3559 -143.1705)" class="st1" width="20" height="20"/>
	
		<rect x="461.72" y="680.01" transform="matrix(0.7071 0.7071 -0.7071 0.7071 626.0716 -131.4547)" class="st1" width="20" height="20"/>
	
		<rect x="433.43" y="708.29" transform="matrix(0.7071 0.7071 -0.7071 0.7071 637.7874 -103.1705)" class="st1" width="20" height="20"/>
	
		<rect x="461.72" y="736.58" transform="matrix(0.7071 0.7071 -0.7071 0.7071 666.0716 -114.8862)" class="st1" width="20" height="20"/>
	
		<rect x="490" y="764.86" transform="matrix(0.7071 0.7071 -0.7071 0.7071 694.3559 -126.6019)" class="st1" width="20" height="20"/>
	
		<rect x="518.28" y="736.58" transform="matrix(0.7071 0.7071 -0.7071 0.7071 682.6401 -154.8862)" class="st1" width="20" height="20"/>
	
		<rect x="546.57" y="708.29" transform="matrix(0.7071 0.7071 -0.7071 0.7071 670.9244 -183.1705)" class="st1" width="20" height="20"/>
	
		<rect x="461.72" y="623.44" transform="matrix(0.7071 0.7071 -0.7071 0.7071 586.0716 -148.0233)" class="st1" width="20" height="20"/>
	
		<rect x="433.43" y="651.72" transform="matrix(0.7071 0.7071 -0.7071 0.7071 597.7874 -119.739)" class="st1" width="20" height="20"/>
	
		<rect x="433.43" y="538.59" transform="matrix(0.7071 0.7071 -0.7071 0.7071 517.7874 -152.8761)" class="st1" width="20" height="20"/>
	
		<rect x="546.57" y="538.59" transform="matrix(0.7071 0.7071 -0.7071 0.7071 550.9244 -232.8761)" class="st1" width="20" height="20"/>
</g>
<g>
	<g>
		<rect x="161.16" y="338.84" class="st2" width="99.17" height="49.59"/>
		<rect x="161.16" y="388.43" class="st2" width="99.17" height="49.59"/>
		<rect x="161.16" y="438.02" class="st2" width="99.17" height="49.59"/>
		<circle class="st2" cx="161.16" cy="363.64" r="24.79"/>
		<circle class="st2" cx="161.16" cy="413.22" r="24.79"/>
		<circle class="st2" cx="161.16" cy="462.81" r="24.79"/>
	</g>
	<g>
		<rect x="739.67" y="338.84" class="st2" width="99.17" height="49.59"/>
		<rect x="739.67" y="388.43" class="st2" width="99.17" height="49.59"/>
		<rect x="739.67" y="438.02" class="st2" width="99.17" height="49.59"/>
		<circle class="st2" cx="838.84" cy="363.64" r="24.79"/>
		<circle class="st2" cx="838.84" cy="413.22" r="24.79"/>
		<circle class="st2" cx="838.84" cy="462.81" r="24.79"/>
	</g>
	<path class="st3" d="M278.64,246.84"/>
	<path class="st3" d="M266.95,282.67L266.95,282.67C267.04,282.28,266.99,282.48,266.95,282.67z"/>
	<rect x="161.16" y="487.6" class="st4" width="99.17" height="495.87"/>
	<rect x="739.67" y="487.6" class="st4" width="99.17" height="495.87"/>
	<rect x="261.16" y="488.46" class="st2" width="477.69" height="494.16"/>
	<linearGradient id="SVGID_1_" gradientUnits="userSpaceOnUse" x1="367.7686" y1="702.4793" x2="632.2314" y2="702.4793">
		<stop  offset="0" style="stop-color:#9BFEC0"/>
		<stop  offset="0.15" style="stop-color:#A6FBF4"/>
		<stop  offset="0.85" style="stop-color:#EA9EFF"/>
		<stop  offset="1" style="stop-color:#F7994B"/>
	</linearGradient>
	<path class="st5" d="M367.77,487.6v297.52c0,73.03,59.2,132.23,132.23,132.23s132.23-59.2,132.23-132.23V487.6H367.77z"/>
	<g>
		<linearGradient id="SVGID_2_" gradientUnits="userSpaceOnUse" x1="497.5035" y1="862.4202" x2="641.1292" y2="862.4202">
			<stop  offset="0" style="stop-color:#9BFEC0"/>
			<stop  offset="0.25" style="stop-color:#A6FBF4"/>
			<stop  offset="0.75" style="stop-color:#EA9EFF"/>
			<stop  offset="1" style="stop-color:#F7994B"/>
		</linearGradient>
		
			<rect x="552.79" y="778.63" transform="matrix(0.7071 0.7071 -0.7071 0.7071 776.572 -149.9704)" class="st6" width="33.06" height="167.58"/>
		<linearGradient id="SVGID_3_" gradientUnits="userSpaceOnUse" x1="371.4296" y1="738.4537" x2="641.1292" y2="738.4537">
			<stop  offset="0" style="stop-color:#9BFEC0"/>
			<stop  offset="0.25" style="stop-color:#A6FBF4"/>
			<stop  offset="0.75" style="stop-color:#EA9EFF"/>
			<stop  offset="1" style="stop-color:#F7994B"/>
		</linearGradient>
		
			<rect x="489.75" y="565.52" transform="matrix(0.7071 0.7071 -0.7071 0.7071 670.4514 -141.7055)" class="st7" width="33.06" height="345.88"/>
		<linearGradient id="SVGID_4_" gradientUnits="userSpaceOnUse" x1="359.643" y1="576.1789" x2="603.4584" y2="576.1789">
			<stop  offset="0" style="stop-color:#9BFEC0"/>
			<stop  offset="0.25" style="stop-color:#A6FBF4"/>
			<stop  offset="0.75" style="stop-color:#EA9EFF"/>
			<stop  offset="1" style="stop-color:#F7994B"/>
		</linearGradient>
		
			<rect x="465.02" y="421.54" transform="matrix(0.7071 0.7071 -0.7071 0.7071 548.463 -171.7489)" class="st8" width="33.06" height="309.27"/>
		<linearGradient id="SVGID_5_" gradientUnits="userSpaceOnUse" x1="499.0871" y1="487.6033" x2="547.5911" y2="487.6033">
			<stop  offset="0" style="stop-color:#9BFEC0"/>
			<stop  offset="0.25" style="stop-color:#A6FBF4"/>
			<stop  offset="0.75" style="stop-color:#EA9EFF"/>
			<stop  offset="1" style="stop-color:#F7994B"/>
		</linearGradient>
		
			<rect x="506.81" y="471.07" transform="matrix(0.7071 -0.7071 0.7071 0.7071 -191.5052 512.8723)" class="st9" width="33.06" height="33.06"/>
		<linearGradient id="SVGID_6_" gradientUnits="userSpaceOnUse" x1="402.7858" y1="579.324" x2="640.4029" y2="579.324">
			<stop  offset="0" style="stop-color:#9BFEC0"/>
			<stop  offset="0.25" style="stop-color:#A6FBF4"/>
			<stop  offset="0.75" style="stop-color:#EA9EFF"/>
			<stop  offset="1" style="stop-color:#F7994B"/>
		</linearGradient>
		
			<rect x="505.07" y="429.07" transform="matrix(0.7071 -0.7071 0.7071 0.7071 -256.8725 538.503)" class="st10" width="33.06" height="300.5"/>
		<linearGradient id="SVGID_7_" gradientUnits="userSpaceOnUse" x1="358.8708" y1="651.2313" x2="454.1257" y2="651.2313">
			<stop  offset="0" style="stop-color:#9BFEC0"/>
			<stop  offset="0.25" style="stop-color:#A6FBF4"/>
			<stop  offset="0.75" style="stop-color:#EA9EFF"/>
			<stop  offset="1" style="stop-color:#F7994B"/>
		</linearGradient>
		
			<rect x="389.97" y="601.64" transform="matrix(0.7071 -0.7071 0.7071 0.7071 -341.4295 478.1789)" class="st11" width="33.06" height="99.17"/>
		<linearGradient id="SVGID_8_" gradientUnits="userSpaceOnUse" x1="358.8708" y1="861.0427" x2="499.7417" y2="861.0427">
			<stop  offset="0" style="stop-color:#9BFEC0"/>
			<stop  offset="0.25" style="stop-color:#A6FBF4"/>
			<stop  offset="0.75" style="stop-color:#EA9EFF"/>
			<stop  offset="1" style="stop-color:#F7994B"/>
		</linearGradient>
		
			<rect x="412.78" y="779.2" transform="matrix(0.7071 -0.7071 0.7071 0.7071 -483.1083 555.759)" class="st12" width="33.06" height="163.68"/>
		<linearGradient id="SVGID_9_" gradientUnits="userSpaceOnUse" x1="359.5313" y1="650.9011" x2="641.1292" y2="650.9011">
			<stop  offset="0" style="stop-color:#9BFEC0"/>
			<stop  offset="0.25" style="stop-color:#A6FBF4"/>
			<stop  offset="0.75" style="stop-color:#EA9EFF"/>
			<stop  offset="1" style="stop-color:#F7994B"/>
		</linearGradient>
		
			<rect x="483.8" y="469.55" transform="matrix(0.7071 0.7071 -0.7071 0.7071 606.7999 -163.1424)" class="st13" width="33.06" height="362.7"/>
		<linearGradient id="SVGID_10_" gradientUnits="userSpaceOnUse" x1="421.2121" y1="807.0641" x2="641.1292" y2="807.0641">
			<stop  offset="0" style="stop-color:#9BFEC0"/>
			<stop  offset="0.25" style="stop-color:#A6FBF4"/>
			<stop  offset="0.75" style="stop-color:#EA9EFF"/>
			<stop  offset="1" style="stop-color:#F7994B"/>
		</linearGradient>
		
			<rect x="514.64" y="669.33" transform="matrix(0.7071 0.7071 -0.7071 0.7071 726.2568 -139.2107)" class="st14" width="33.06" height="275.47"/>
		<linearGradient id="SVGID_11_" gradientUnits="userSpaceOnUse" x1="354.5971" y1="536.4911" x2="500.8766" y2="536.4911">
			<stop  offset="0" style="stop-color:#9BFEC0"/>
			<stop  offset="0.25" style="stop-color:#A6FBF4"/>
			<stop  offset="0.75" style="stop-color:#EA9EFF"/>
			<stop  offset="1" style="stop-color:#F7994B"/>
		</linearGradient>
		
			<rect x="411.21" y="450.82" transform="matrix(0.7071 0.7071 -0.7071 0.7071 504.6377 -145.321)" class="st15" width="33.06" height="171.33"/>
		<linearGradient id="SVGID_12_" gradientUnits="userSpaceOnUse" x1="358.8708" y1="744.733" x2="454.1257" y2="744.733">
			<stop  offset="0" style="stop-color:#9BFEC0"/>
			<stop  offset="0.25" style="stop-color:#A6FBF4"/>
			<stop  offset="0.75" style="stop-color:#EA9EFF"/>
			<stop  offset="1" style="stop-color:#F7994B"/>
		</linearGradient>
		
			<rect x="389.97" y="695.15" transform="matrix(0.7071 -0.7071 0.7071 0.7071 -407.5452 505.5649)" class="st16" width="33.06" height="99.17"/>
		<linearGradient id="SVGID_13_" gradientUnits="userSpaceOnUse" x1="452.3726" y1="838.2348" x2="547.6274" y2="838.2348">
			<stop  offset="0" style="stop-color:#9BFEC0"/>
			<stop  offset="0.25" style="stop-color:#A6FBF4"/>
			<stop  offset="0.75" style="stop-color:#EA9EFF"/>
			<stop  offset="1" style="stop-color:#F7994B"/>
		</linearGradient>
		
			<rect x="483.47" y="788.65" transform="matrix(0.7071 -0.7071 0.7071 0.7071 -446.2749 599.0667)" class="st17" width="33.06" height="99.17"/>
		<linearGradient id="SVGID_14_" gradientUnits="userSpaceOnUse" x1="545.8743" y1="557.6932" x2="641.0564" y2="557.6932">
			<stop  offset="0" style="stop-color:#9BFEC0"/>
			<stop  offset="0.25" style="stop-color:#A6FBF4"/>
			<stop  offset="0.75" style="stop-color:#EA9EFF"/>
			<stop  offset="1" style="stop-color:#F7994B"/>
		</linearGradient>
		
			<rect x="576.94" y="508.16" transform="matrix(0.7071 -0.7071 0.7071 0.7071 -220.5267 582.9879)" class="st18" width="33.06" height="99.07"/>
		<linearGradient id="SVGID_15_" gradientUnits="userSpaceOnUse" x1="452.3726" y1="744.733" x2="547.6274" y2="744.733">
			<stop  offset="0" style="stop-color:#9BFEC0"/>
			<stop  offset="0.25" style="stop-color:#A6FBF4"/>
			<stop  offset="0.75" style="stop-color:#EA9EFF"/>
			<stop  offset="1" style="stop-color:#F7994B"/>
		</linearGradient>
		
			<rect x="483.47" y="695.15" transform="matrix(0.7071 -0.7071 0.7071 0.7071 -380.1592 571.6807)" class="st19" width="33.06" height="99.17"/>
		<linearGradient id="SVGID_16_" gradientUnits="userSpaceOnUse" x1="545.8743" y1="825.9233" x2="616.5063" y2="825.9233">
			<stop  offset="0" style="stop-color:#9BFEC0"/>
			<stop  offset="0.25" style="stop-color:#A6FBF4"/>
			<stop  offset="0.75" style="stop-color:#EA9EFF"/>
			<stop  offset="1" style="stop-color:#F7994B"/>
		</linearGradient>
		
			<rect x="564.66" y="793.75" transform="matrix(0.7071 -0.7071 0.7071 0.7071 -413.7893 652.871)" class="st20" width="33.06" height="64.35"/>
		<linearGradient id="SVGID_17_" gradientUnits="userSpaceOnUse" x1="358.8708" y1="557.7296" x2="454.1257" y2="557.7296">
			<stop  offset="0" style="stop-color:#9BFEC0"/>
			<stop  offset="0.25" style="stop-color:#A6FBF4"/>
			<stop  offset="0.75" style="stop-color:#EA9EFF"/>
			<stop  offset="1" style="stop-color:#F7994B"/>
		</linearGradient>
		
			<rect x="389.97" y="508.14" transform="matrix(0.7071 -0.7071 0.7071 0.7071 -275.3138 450.7929)" class="st21" width="33.06" height="99.17"/>
		<linearGradient id="SVGID_18_" gradientUnits="userSpaceOnUse" x1="452.3726" y1="651.2313" x2="547.6274" y2="651.2313">
			<stop  offset="0" style="stop-color:#9BFEC0"/>
			<stop  offset="0.25" style="stop-color:#A6FBF4"/>
			<stop  offset="0.75" style="stop-color:#EA9EFF"/>
			<stop  offset="1" style="stop-color:#F7994B"/>
		</linearGradient>
		
			<rect x="483.47" y="601.64" transform="matrix(0.7071 -0.7071 0.7071 0.7071 -314.0435 544.2946)" class="st22" width="33.06" height="99.17"/>
		<linearGradient id="SVGID_19_" gradientUnits="userSpaceOnUse" x1="545.8743" y1="744.733" x2="641.1292" y2="744.733">
			<stop  offset="0" style="stop-color:#9BFEC0"/>
			<stop  offset="0.25" style="stop-color:#A6FBF4"/>
			<stop  offset="0.75" style="stop-color:#EA9EFF"/>
			<stop  offset="1" style="stop-color:#F7994B"/>
		</linearGradient>
		
			<rect x="576.97" y="695.15" transform="matrix(0.7071 -0.7071 0.7071 0.7071 -352.7732 637.7963)" class="st23" width="33.06" height="99.17"/>
		<linearGradient id="SVGID_20_" gradientUnits="userSpaceOnUse" x1="592.6251" y1="487.6033" x2="641.1292" y2="487.6033">
			<stop  offset="0" style="stop-color:#9BFEC0"/>
			<stop  offset="0.25" style="stop-color:#A6FBF4"/>
			<stop  offset="0.75" style="stop-color:#EA9EFF"/>
			<stop  offset="1" style="stop-color:#F7994B"/>
		</linearGradient>
		
			<rect x="600.35" y="471.07" transform="matrix(0.7071 -0.7071 0.7071 0.7071 -164.1085 579.0137)" class="st24" width="33.06" height="33.06"/>
		<linearGradient id="SVGID_21_" gradientUnits="userSpaceOnUse" x1="358.7744" y1="487.6997" x2="407.2784" y2="487.6997">
			<stop  offset="0" style="stop-color:#9BFEC0"/>
			<stop  offset="0.25" style="stop-color:#A6FBF4"/>
			<stop  offset="0.75" style="stop-color:#EA9EFF"/>
			<stop  offset="1" style="stop-color:#F7994B"/>
		</linearGradient>
		
			<rect x="366.5" y="471.17" transform="matrix(0.7071 0.7071 -0.7071 0.7071 457.0417 -127.9967)" class="st25" width="33.06" height="33.06"/>
	</g>
	<linearGradient id="SVGID_22_" gradientUnits="userSpaceOnUse" x1="350.6198" y1="703.918" x2="649.3801" y2="703.918">
		<stop  offset="0" style="stop-color:#9BFEC0"/>
		<stop  offset="0.15" style="stop-color:#A6FBF4"/>
		<stop  offset="0.85" style="stop-color:#EA9EFF"/>
		<stop  offset="1" style="stop-color:#F7994B"/>
	</linearGradient>
	<path class="st26" d="M384.3,473.95v311.17c0,63.9,51.8,115.7,115.7,115.7s115.7-51.8,115.7-115.7l1.17-311.17h31.88v311.17
		c0,82.16-66.6,148.76-148.76,148.76s-148.76-66.6-148.76-148.76V473.95H384.3z"/>
	<rect x="260.33" y="338.84" class="st4" width="479.34" height="148.76"/>
	<linearGradient id="SVGID_23_" gradientUnits="userSpaceOnUse" x1="161.157" y1="169.4215" x2="838.843" y2="169.4215">
		<stop  offset="0" style="stop-color:#9BFEC0"/>
		<stop  offset="0.33" style="stop-color:#A6FBF4"/>
		<stop  offset="0.66" style="stop-color:#EA9EFF"/>
		<stop  offset="1" style="stop-color:#F7994B"/>
	</linearGradient>
	<path class="st27" d="M739.6,99.24C678.28,37.93,593.57,0,500,0c-47.87,0-93.43,9.93-134.72,27.84
		c-41.11,17.83-77.99,43.58-108.72,75.31c-3.24,3.02-5.27,7.31-5.27,12.08c0,9.13,7.4,16.53,16.53,16.53
		c4.21,0,8.03-1.58,10.95-4.17l0.01,0.01l0.25-0.25c0.31-0.29,0.61-0.58,0.89-0.89l3.85-3.84c0.06-0.06,0.13-0.13,0.2-0.19
		c-15.26,15.23-28.91,32.06-40.69,50.23c0.19-0.29,0.36-0.58,0.55-0.86l-0.01,0c1.7-2.6,2.69-5.69,2.69-9.02
		c0-9.13-7.4-16.53-16.53-16.53c-5.8,0-10.89,2.99-13.84,7.5l-0.01-0.01c-10.18,15.58-19.12,32.05-26.66,49.27l0.01,0
		c-0.89,2.03-1.39,5.01-1.39,7.37c0,9.13,7.4,15.78,16.53,15.78c5.43,0,10.66-2.33,13.85-6.25c-0.82,1.09-1.52,2.27-2.04,3.55
		c-6.26,15.37-11.07,31.52-14.78,48.03c0.08-0.37,0.15-0.74,0.24-1.1l-0.02,0c0.27-1.19,0.43-2.42,0.43-3.7
		c0-9.13-7.4-16.53-16.53-16.53c-7.86,0-14.42,5.49-16.1,12.83l-0.01,0c-0.01,0.06-0.02,0.11-0.04,0.17
		c-0.02,0.11-0.05,0.22-0.07,0.33c-2.4,10.57-4.31,21.32-5.7,32.23l0.01,0c-0.09,0.69-0.15,1.39-0.15,2.1
		c0,9.13,7.4,16.53,16.53,16.53c8.41,0,15.35-6.29,16.38-14.43l0.02,0c1.13-8.93,2.67-17.73,4.56-26.4
		c-0.17,0.94-0.27,1.91-0.27,2.89c0,9.13,7.4,16.53,16.53,16.53c7.9,0,14.55-5.54,16.18-12.96c0.24-1.09,0.5-2.18,0.75-3.26
		c-3.48,14.95-5.76,30.36-6.68,46.13c0.01-0.17,0.01-0.34,0.02-0.51l-0.02,0c0.02-0.33,0.05-0.66,0.05-1
		c0-9.13-7.4-16.53-16.53-16.53c-8.79,0-15.96,6.87-16.48,15.53l-0.02,0c-0.34,5.66-0.5,11.37-0.53,17.11
		c-0.71-8.48-7.89-15.15-16.55-15.15c-9.13,0-16.53,7.4-16.53,16.53h33.06h0.09h32.97h33.06c0-20.19,1.92-37.43,6.62-56.17
		c-0.1,0.39-0.05,0.2,0,0l-0.01,0c0.3-1.24,0.47-2.53,0.47-3.87c0-9.13-7.4-16.53-16.53-16.53c-7.75,0-14.23,5.34-16.02,12.54
		c3.2-13.32,7.36-26.27,12.44-38.74l-0.02-0.01c0.78-1.92,1.22-4.02,1.22-6.23c0-9.13-7.4-16.53-16.53-16.53
		c-5.14,0-9.85,2.27-12.95,5.92c0.56-0.77,1.06-1.59,1.44-2.47c6.57-15,13.62-29.87,22.42-43.5l0.01,0
		c-1.66,2.58-2.64,5.64-2.64,8.94c0,9.13,7.4,16.53,16.53,16.53c5.83,0,10.94-3.03,13.89-7.59l0.01,0c0.29-0.46,0.61-0.9,0.9-1.35
		c-8.64,13.22-16.17,27.22-22.45,41.9c0,0,0,0.01-0.01,0.01c0,0,0,0,0,0h0c-0.83,1.98-1.3,4.15-1.3,6.43
		c0,9.13,7.4,16.53,16.53,16.53c6.9,0,12.81-4.23,15.28-10.24C316.16,158.72,400.95,99.17,500,99.17
		c132.37,0,239.67,107.3,239.67,239.67h33.06h33.06h16.53h16.53C838.84,245.27,800.92,160.56,739.6,99.24z"/>
	<g>
		<rect x="482.8" y="421.49" class="st2" width="165.96" height="33.06"/>
		<rect x="351.24" y="421.49" class="st2" width="78.42" height="33.06"/>
		<circle class="st2" cx="482.8" cy="438.02" r="16.53"/>
		<circle class="st2" cx="351.24" cy="438.02" r="16.53"/>
		<circle class="st2" cx="429.66" cy="438.02" r="16.53"/>
		<circle class="st2" cx="648.76" cy="438.02" r="16.53"/>
	</g>
	<g>
		<rect x="351.24" y="371.9" class="st2" width="297.52" height="33.06"/>
		<circle class="st2" cx="351.24" cy="388.43" r="16.53"/>
		<circle class="st2" cx="648.76" cy="388.43" r="16.53"/>
	</g>
	<g>
		<path class="st4" d="M272.73,983.47c0,9.09-7.44,16.53-16.53,16.53h-90.91c-9.09,0-16.53-7.44-16.53-16.53v-49.59
			c0-9.09,7.44-16.53,16.53-16.53h90.91c9.09,0,16.53,7.44,16.53,16.53V983.47z"/>
	</g>
	<g>
		<path class="st4" d="M851.24,983.47c0,9.09-7.44,16.53-16.53,16.53H743.8c-9.09,0-16.53-7.44-16.53-16.53v-49.59
			c0-9.09,7.44-16.53,16.53-16.53h90.91c9.09,0,16.53,7.44,16.53,16.53V983.47z"/>
	</g>
</g>
</svg>
