<?xml version="1.0" encoding="utf-8"?>
<!-- Generator: Adobe Illustrator 23.0.1, SVG Export Plug-In . SVG Version: 6.00 Build 0)  -->
<svg version="1.1" id="Layer_1" xmlns="http://www.w3.org/2000/svg" xmlns:xlink="http://www.w3.org/1999/xlink" x="0px" y="0px"
	 viewBox="0 0 500 1000" style="enable-background:new 0 0 500 1000;" xml:space="preserve">
<style type="text/css">
	.st0{fill:none;stroke:url(#SVGID_1_);stroke-width:8;stroke-miterlimit:10;}
	.st1{fill:none;stroke:#000000;stroke-width:7.3795;stroke-miterlimit:10;}
</style>
<linearGradient id="SVGID_1_" gradientUnits="userSpaceOnUse" x1="244.3611" y1="816.105" x2="244.3611" y2="10.4189">
	<stop  offset="0" style="stop-color:#9BFEC0"/>
	<stop  offset="0.333" style="stop-color:#A6FBF4"/>
	<stop  offset="0.666" style="stop-color:#EA9EFF"/>
	<stop  offset="1" style="stop-color:#F7994B"/>
</linearGradient>
<path class="st0" d="M270,713c0,0-215-79-224,49c0,0-2,105,109,11s295-164,328-372S187,55,187,55S72,5,0,16"/>
<g>
	<g>
		<path class="st1" d="M312.28,696.21c0,0,8.11-1.47,15.3-0.12c79.58,14.92,123.99,56.56,123.99,56.56
			c54.41,51.01,57.17,136.47,6.16,190.88s-136.47,57.17-190.88,6.16c0,0-64.23-65.28-64.42-119.57"/>
	</g>
	<path class="st1" d="M249.86,900.91c10.68,15.58,21.03,24.77,21.03,24.77l0.17,0.03c49.08,46.01,123.97,45.86,167.28-0.34
		s38.64-120.95-10.44-166.95l-0.17-0.03c0,0-15.07-14.13-32.28-21.67"/>
	<g>
		<path class="st1" d="M271.03,899.22c0,0,57.03-10.18,24.25-55.31c-32.78-45.12-35.53-96.95-82.3-68.86s27.17,121.77,27.17,121.77
			S246.95,904.88,271.03,899.22z"/>
		<line class="st1" x1="212.09" y1="774.24" x2="265.27" y2="876.92"/>
	</g>
	<g>
		<path class="st1" d="M398.35,763.41c0,0-6.41,57.48-53.53,27.66c-47.12-29.82-98.96-29.29-74.02-77.68
			c24.94-48.39,123.15,19.39,123.15,19.39S402.41,739.06,398.35,763.41z"/>
		<line class="st1" x1="375.81" y1="759.01" x2="269.91" y2="712.56"/>
	</g>
	<circle cx="375.81" cy="759.01" r="3.69"/>
	<circle cx="265.27" cy="876.92" r="3.69"/>
</g>
</svg>
